<?xml version="1.0" encoding="UTF-8" standalone="no"?>
<!DOCTYPE svg PUBLIC "-//W3C//DTD SVG 1.1//EN" "http://www.w3.org/Graphics/SVG/1.1/DTD/svg11.dtd">
<svg xmlns="http://www.w3.org/2000/svg" version="1.1" viewBox="0.00 0.00 556.00 243.00">
<path fill="#0e8dd2" d="
  M 356.24 34.74
  L 348.53 35.47
  A 1.20 1.20 0.0 0 1 347.40 33.64
  L 350.37 28.88
  A 1.20 1.20 0.0 0 1 351.18 28.34
  L 360.54 26.68
  A 1.20 1.20 0.0 0 1 361.68 28.62
  L 357.06 34.30
  A 1.20 1.20 0.0 0 1 356.24 34.74
  Z"
/>
<path fill="#264e9a" d="
  M 217.01 29.02
  L 220.75 34.25
  A 0.78 0.78 0.0 0 1 220.03 35.48
  L 211.03 34.46
  A 0.78 0.78 0.0 0 1 210.50 34.15
  L 206.02 28.17
  A 0.78 0.78 0.0 0 1 206.78 26.94
  L 216.52 28.70
  A 0.78 0.78 0.0 0 1 217.01 29.02
  Z"
/>
<path fill="#205ea9" d="
  M 256.28 44.24
  L 256.04 44.01
  Q 255.44 43.45 254.67 43.72
  Q 247.11 46.34 240.54 47.73
  Q 236.63 48.55 233.32 45.57
  Q 232.56 44.89 233.57 45.04
  C 235.79 45.38 237.63 44.52 239.84 44.30
  Q 247.56 43.53 254.87 41.79
  Q 255.60 41.62 255.07 41.09
  L 254.78 40.81
  Q 254.26 40.31 253.54 40.37
  L 232.47 42.17
  Q 230.70 42.32 229.43 41.06
  L 227.76 39.41
  Q 226.42 38.08 228.31 38.07
  L 252.48 37.99
  A 0.94 0.93 -81.6 0 0 253.37 37.32
  Q 253.65 36.39 252.75 36.30
  Q 247.57 35.75 239.88 35.66
  C 234.86 35.60 229.96 34.86 225.00 34.65
  A 1.85 1.84 -17.0 0 1 223.61 33.92
  L 220.04 29.20
  Q 219.31 28.22 220.52 28.37
  Q 229.17 29.43 237.33 30.84
  Q 242.21 31.69 247.76 31.98
  Q 253.23 32.27 258.17 33.31
  Q 259.90 33.67 259.97 35.33
  C 260.10 38.62 260.18 42.97 262.43 45.57
  Q 265.84 49.50 270.84 47.33
  Q 271.40 47.09 271.73 47.61
  Q 273.44 50.38 273.84 53.29
  A 0.53 0.53 0.0 0 1 273.26 53.89
  Q 271.25 53.69 269.47 54.97
  Q 267.14 56.65 264.41 56.63
  Q 263.75 56.62 264.10 56.07
  L 267.02 51.53
  A 0.54 0.54 0.0 0 0 266.55 50.70
  L 266.20 50.71
  Q 265.42 50.74 265.09 51.44
  Q 262.34 57.15 256.54 56.85
  A 0.29 0.29 0.0 0 1 256.35 56.36
  L 262.36 50.27
  A 0.80 0.80 0.0 0 0 262.38 49.17
  L 262.21 48.98
  A 0.36 0.36 0.0 0 0 261.71 48.94
  Q 259.34 50.83 257.04 53.24
  C 255.44 54.92 253.28 55.58 251.05 55.64
  Q 248.09 55.72 250.48 53.98
  L 257.56 48.83
  Q 258.25 48.34 258.08 47.51
  L 258.00 47.13
  A 0.40 0.40 0.0 0 0 257.40 46.88
  L 247.05 53.36
  Q 246.30 53.83 245.49 53.49
  L 241.16 51.68
  A 0.48 0.48 0.0 0 1 241.26 50.77
  Q 244.00 50.30 245.43 49.30
  Q 245.73 49.08 246.09 48.97
  Q 250.94 47.40 256.19 44.83
  A 0.36 0.36 0.0 0 0 256.28 44.24
  Z"
/>
<path fill="#0e8dd2" d="
  M 309.67 48.77
  Q 314.04 51.54 318.14 55.09
  Q 318.84 55.69 317.93 55.83
  Q 314.79 56.32 312.36 54.63
  Q 309.19 52.42 306.34 49.77
  A 0.37 0.37 0.0 0 0 305.84 49.77
  L 305.56 50.02
  Q 305.12 50.42 305.55 50.83
  Q 308.37 53.48 310.82 56.12
  Q 311.31 56.66 311.39 57.42
  Q 311.44 57.97 311.94 58.21
  Q 313.48 58.97 314.58 60.39
  Q 314.84 60.72 314.42 60.76
  Q 312.46 60.95 311.12 59.79
  Q 310.62 59.35 310.96 58.79
  A 0.95 0.95 0.0 0 0 310.39 57.39
  C 308.85 56.98 307.27 57.09 305.98 56.04
  Q 303.92 54.37 302.90 51.69
  A 0.88 0.88 0.0 0 0 302.01 51.12
  Q 301.76 51.14 301.53 51.25
  Q 300.75 51.60 301.17 52.35
  L 303.51 56.45
  A 0.39 0.39 0.0 0 1 303.10 57.03
  Q 299.84 56.46 297.33 54.65
  C 296.61 54.13 295.78 54.00 294.92 54.12
  A 0.85 0.85 0.0 0 1 293.97 53.09
  Q 294.56 50.55 296.23 48.41
  Q 296.49 48.08 296.92 48.08
  L 302.65 48.16
  Q 303.25 48.16 303.67 47.73
  C 305.61 45.68 307.77 43.98 307.48 40.89
  Q 307.24 38.24 307.47 35.38
  Q 307.61 33.61 309.31 33.33
  Q 317.39 32.03 325.65 31.69
  C 327.59 31.61 329.59 31.22 331.44 30.61
  Q 332.52 30.26 333.66 30.29
  C 336.18 30.36 338.36 29.45 340.86 29.44
  Q 344.59 29.43 347.93 28.39
  Q 348.53 28.20 348.29 28.78
  Q 346.60 32.99 342.87 34.77
  Q 340.36 35.97 335.52 35.82
  Q 325.33 35.51 314.58 37.00
  Q 314.39 37.02 314.42 37.21
  L 314.48 37.57
  A 0.60 0.59 -4.5 0 0 315.07 38.07
  L 340.06 38.26
  Q 342.07 38.28 340.66 39.71
  C 338.47 41.93 335.66 42.95 332.52 42.64
  Q 329.01 42.30 325.47 42.02
  C 323.13 41.84 320.83 42.09 318.59 41.38
  C 317.26 40.96 315.72 40.88 314.33 41.02
  Q 312.05 41.24 314.16 42.14
  C 316.77 43.25 319.62 42.94 322.37 43.45
  Q 327.62 44.44 333.50 45.15
  Q 335.08 45.34 333.85 46.35
  Q 330.29 49.29 325.33 47.78
  Q 318.98 45.85 312.59 44.07
  Q 312.13 43.94 312.02 44.41
  Q 311.92 44.84 312.29 45.10
  Q 315.61 47.37 319.52 48.22
  Q 318.11 48.26 325.64 50.83
  Q 327.68 51.52 325.68 52.32
  Q 324.50 52.79 323.45 53.42
  A 3.52 3.51 -44.0 0 1 319.73 53.36
  L 311.61 48.09
  A 1.19 1.19 0.0 0 0 310.66 47.93
  L 309.76 48.16
  Q 309.01 48.36 309.67 48.77
  Z"
/>
<path fill="#1a6eb6" d="
  M 276.00 41.63
  Q 278.35 36.39 284.21 36.20
  Q 287.79 36.09 289.97 38.22
  C 292.66 40.85 293.48 45.45 291.71 48.86
  Q 290.70 50.80 290.42 52.93
  A 0.87 0.87 0.0 0 1 289.65 53.68
  Q 284.31 54.29 278.79 53.90
  A 1.24 1.23 -1.7 0 1 277.65 52.83
  Q 277.28 50.01 275.97 47.37
  Q 274.63 44.67 276.00 41.63
  Z"
/>
<path fill="#264e9a" d="
  M 214.27 38.40
  L 223.95 38.93
  A 0.48 0.48 0.0 0 1 224.27 39.08
  L 227.11 42.05
  A 0.48 0.48 0.0 0 1 226.84 42.85
  L 219.59 44.00
  A 0.48 0.48 0.0 0 1 219.20 43.89
  L 213.93 39.24
  A 0.48 0.48 0.0 0 1 214.27 38.40
  Z"
/>
<path fill="#0e8dd2" d="
  M 353.77 39.22
  L 349.39 43.85
  A 0.70 0.70 0.0 0 1 348.82 44.07
  L 341.01 43.37
  A 0.70 0.70 0.0 0 1 340.57 42.18
  L 344.02 38.72
  A 0.70 0.70 0.0 0 1 344.48 38.52
  L 353.23 38.04
  A 0.70 0.70 0.0 0 1 353.77 39.22
  Z"
/>
<path fill="#0e8dd2" d="
  M 339.56 51.83
  L 334.37 49.78
  A 0.46 0.46 0.0 0 1 334.24 49.00
  L 337.06 46.60
  A 0.46 0.46 0.0 0 1 337.45 46.50
  L 345.19 48.21
  A 0.46 0.46 0.0 0 1 345.30 49.07
  L 339.94 51.82
  A 0.46 0.46 0.0 0 1 339.56 51.83
  Z"
/>
<path fill="#205ea9" d="
  M 223.53 47.82
  L 231.03 46.90
  A 0.84 0.84 0.0 0 1 231.65 47.07
  L 233.86 48.80
  A 0.84 0.84 0.0 0 1 233.51 50.28
  L 228.43 51.28
  A 0.84 0.84 0.0 0 1 227.96 51.24
  L 223.33 49.44
  A 0.84 0.84 0.0 0 1 223.53 47.82
  Z"
/>
<path fill="#205ea9" d="
  M 232.38 55.15
  L 238.54 52.84
  A 0.38 0.38 0.0 0 1 238.86 52.87
  L 242.92 55.18
  A 0.38 0.38 0.0 0 1 242.92 55.83
  L 238.16 58.69
  A 0.38 0.38 0.0 0 1 237.79 58.70
  L 232.33 55.84
  A 0.38 0.38 0.0 0 1 232.38 55.15
  Z"
/>
<path fill="#0e8dd2" d="
  M 329.94 58.58
  L 325.59 55.96
  A 0.64 0.64 0.0 0 1 325.63 54.84
  L 329.67 52.86
  A 0.64 0.64 0.0 0 1 330.18 52.83
  L 335.32 54.87
  A 0.64 0.64 0.0 0 1 335.38 56.03
  L 330.57 58.60
  A 0.64 0.64 0.0 0 1 329.94 58.58
  Z"
/>
<rect fill="#1a6eb6" x="-4.89" y="-1.31" transform="translate(283.88,56.52) rotate(0.1)" width="9.78" height="2.62" rx="1.04"/>
<path fill="#1a6eb6" d="
  M 248.89 57.08
  L 251.36 57.94
  Q 251.93 58.14 251.45 58.50
  Q 248.63 60.62 245.47 60.36
  Q 243.25 60.17 245.16 59.02
  Q 246.35 58.30 247.36 57.39
  A 1.53 1.52 33.4 0 1 248.89 57.08
  Z"
/>
<path fill="#0e8dd2" d="
  M 319.24 60.16
  L 316.86 58.39
  A 0.55 0.55 0.0 0 1 317.12 57.40
  L 320.15 57.02
  A 0.55 0.55 0.0 0 1 320.56 57.13
  L 323.37 59.33
  A 0.55 0.55 0.0 0 1 323.02 60.31
  L 319.56 60.27
  A 0.55 0.55 0.0 0 1 319.24 60.16
  Z"
/>
<path fill="#1a6eb6" d="
  M 257.50 59.21
  L 258.00 59.30
  Q 258.73 59.45 258.11 59.86
  Q 256.32 61.02 253.92 60.72
  Q 253.32 60.65 253.70 60.18
  C 254.49 59.23 255.14 59.33 256.01 58.75
  Q 256.38 58.50 256.71 58.80
  Q 257.05 59.12 257.50 59.21
  Z"
/>
<ellipse fill="#2b3e8e" cx="0.00" cy="0.00" transform="translate(264.67,59.27) rotate(-0.1)" rx="1.49" ry="0.30"/>
<rect fill="#1a6eb6" x="-3.87" y="-9.68" transform="translate(284.07,69.10) rotate(-0.1)" width="7.74" height="19.36" rx="0.27"/>
<path fill="#1a6eb6" d="
  M 286.51 104.93
  Q 287.71 105.28 288.90 105.23
  Q 289.45 105.21 289.83 105.59
  Q 293.01 108.77 292.52 113.66
  Q 292.12 117.64 287.84 119.67
  C 285.60 120.73 282.70 120.29 280.25 120.36
  C 278.72 120.40 277.85 121.50 277.70 122.95
  Q 277.16 127.88 280.89 128.81
  A 1.07 1.07 0.0 0 0 282.22 127.79
  L 282.30 123.72
  Q 282.32 122.92 283.11 122.99
  L 284.93 123.13
  Q 285.55 123.18 285.61 123.80
  Q 285.80 125.58 285.76 127.50
  Q 285.73 128.68 286.76 129.11
  C 289.18 130.12 290.34 132.95 289.98 135.37
  Q 289.53 138.37 285.93 139.84
  A 1.23 1.22 -0.7 0 0 285.25 140.53
  L 284.45 142.50
  Q 283.69 144.39 283.22 142.41
  Q 282.65 139.94 280.63 139.05
  C 278.34 138.05 277.79 135.56 278.29 133.34
  A 0.43 0.43 0.0 0 1 278.72 133.01
  L 279.15 133.02
  Q 279.77 133.03 279.68 133.65
  Q 279.32 136.10 280.92 137.58
  Q 282.10 138.67 282.21 137.07
  L 282.36 134.79
  Q 282.41 134.12 283.08 134.08
  L 284.82 133.98
  Q 285.43 133.95 285.48 134.56
  L 285.73 137.46
  Q 285.84 138.77 286.76 137.84
  Q 287.02 137.57 287.26 137.30
  A 3.88 3.85 -22.5 0 0 288.19 135.08
  C 288.63 129.39 282.14 132.83 279.37 131.15
  Q 275.29 128.67 275.98 123.32
  Q 276.41 120.02 277.97 118.30
  A 1.87 1.83 -77.3 0 1 278.76 117.79
  L 281.34 117.00
  A 0.73 0.73 0.0 0 0 281.85 116.25
  L 281.58 111.44
  Q 281.56 111.17 281.83 111.16
  L 285.88 111.07
  Q 286.18 111.07 286.16 111.36
  Q 286.04 113.47 286.07 113.79
  Q 286.58 118.88 288.77 114.33
  Q 289.81 112.19 288.14 109.12
  Q 287.84 108.56 287.21 108.57
  Q 281.65 108.67 276.63 108.59
  C 274.82 108.56 272.53 107.98 271.47 106.32
  Q 268.83 102.19 270.17 97.13
  Q 270.29 96.66 270.62 96.32
  L 272.10 94.82
  Q 272.48 94.44 273.02 94.41
  Q 280.52 94.09 288.01 94.32
  C 290.90 94.41 295.87 93.67 297.01 90.49
  C 298.26 87.05 294.21 83.69 291.08 83.72
  Q 281.37 83.83 272.22 83.68
  C 268.57 83.62 263.49 81.71 262.03 77.91
  C 259.88 72.34 261.18 67.07 266.34 64.29
  Q 268.98 62.87 271.11 61.57
  Q 271.86 61.11 272.68 61.20
  Q 273.66 61.30 273.11 62.12
  Q 272.83 62.54 273.08 62.97
  Q 273.33 63.40 273.83 63.54
  Q 276.04 64.16 277.07 62.33
  Q 277.25 62.01 277.40 62.35
  Q 278.25 64.29 276.54 65.28
  Q 273.14 67.22 269.01 67.56
  C 266.44 67.76 264.93 70.38 264.75 72.66
  Q 264.35 78.00 269.48 79.66
  C 274.57 81.31 280.34 80.13 285.92 80.42
  Q 288.07 80.53 290.16 80.35
  C 296.26 79.84 301.01 82.90 299.58 89.73
  C 298.13 96.70 292.60 96.83 286.75 96.78
  Q 282.30 96.75 277.60 96.50
  Q 276.02 96.41 274.53 96.83
  A 1.20 1.19 -86.8 0 0 273.76 97.52
  Q 272.52 100.55 273.73 103.44
  Q 274.44 105.14 276.28 105.17
  L 280.47 105.24
  Q 281.78 105.26 281.49 103.98
  Q 280.99 101.82 281.21 99.77
  Q 281.27 99.14 281.90 99.16
  L 286.04 99.23
  Q 286.71 99.24 286.80 99.91
  Q 287.13 102.37 286.25 104.37
  Q 286.07 104.80 286.51 104.93
  Z"
/>
<path fill="#0e8dd2" d="
  M 294.57 62.39
  Q 294.94 61.48 295.84 61.47
  Q 296.91 61.45 297.76 62.10
  Q 299.45 63.41 301.44 64.25
  C 303.62 65.18 305.57 67.68 306.26 69.84
  Q 308.26 76.10 303.10 81.35
  Q 301.78 82.69 300.48 81.32
  Q 300.22 81.04 299.91 80.79
  Q 298.53 79.69 300.05 78.78
  C 304.52 76.08 304.90 72.17 301.38 68.82
  Q 300.18 67.68 298.51 67.47
  C 296.57 67.22 289.07 66.09 290.60 62.65
  Q 290.88 62.03 291.35 62.52
  Q 292.35 63.56 293.72 63.17
  A 1.33 1.31 -87.0 0 0 294.57 62.39
  Z"
/>
<rect fill="#1a6eb6" x="-3.13" y="-3.26" transform="translate(284.06,89.02) rotate(0.3)" width="6.26" height="6.52" rx="0.90"/>
<path fill="#1a6eb6" d="
  M 270.79 87.36
  Q 270.37 89.90 271.60 92.06
  A 1.12 1.12 0.0 0 1 271.63 93.12
  Q 271.20 93.97 270.21 94.31
  Q 269.69 94.49 269.35 94.06
  C 267.76 92.10 266.84 88.74 268.37 86.42
  Q 268.65 85.99 269.16 86.08
  L 270.65 86.36
  Q 271.37 86.49 270.92 87.07
  Q 270.82 87.20 270.79 87.36
  Z"
/>
<path fill="#1a6eb6" d="
  M 292.80 105.09
  C 294.28 103.79 294.24 101.59 294.17 99.79
  Q 294.14 98.84 295.06 98.62
  L 296.05 98.37
  Q 296.93 98.15 297.10 99.04
  Q 297.99 103.78 294.87 107.37
  Q 294.61 107.66 294.34 107.38
  L 292.77 105.77
  A 0.48 0.47 -42.9 0 1 292.80 105.09
  Z"
/>
<rect fill="#1a6eb6" x="-1.43" y="-2.90" transform="translate(276.46,114.30) rotate(-7.2)" width="2.86" height="5.80" rx="1.05"/>
<path fill="#2b3e8e" d="
  M 289.80 129.32
  Q 289.10 129.08 289.40 128.49
  Q 290.62 126.07 290.21 123.42
  Q 290.10 122.71 290.71 122.34
  L 290.99 122.16
  A 0.27 0.27 0.0 0 1 291.39 122.34
  Q 292.29 127.43 290.93 129.51
  A 0.64 0.63 -61.3 0 1 290.13 129.75
  Q 289.99 129.69 289.97 129.53
  Q 289.95 129.37 289.80 129.32
  Z"
/>
<path fill="#264e9a" d="
  M 152.45 196.61
  C 152.64 201.66 154.91 207.07 160.42 208.11
  Q 171.28 210.16 176.14 200.82
  A 0.69 0.69 0.0 0 1 177.07 200.53
  L 185.20 204.81
  A 0.94 0.93 33.7 0 1 185.49 206.23
  Q 181.97 210.54 177.62 213.90
  C 174.05 216.64 169.31 217.47 164.92 218.25
  Q 162.70 218.64 160.56 218.17
  C 158.59 217.75 156.38 217.70 154.53 217.05
  C 143.13 213.02 138.99 203.71 139.11 192.34
  Q 139.21 182.80 144.34 176.28
  C 150.13 168.94 160.05 166.93 168.58 168.55
  C 181.10 170.93 187.20 182.61 186.57 194.66
  Q 186.52 195.59 185.58 195.59
  L 153.47 195.55
  A 1.02 1.02 0.0 0 0 152.45 196.61
  Z
  M 153.65 187.73
  L 172.37 187.73
  A 0.72 0.72 0.0 0 0 173.09 187.01
  L 173.09 186.88
  A 9.99 9.98 90.0 0 0 163.11 176.89
  L 162.91 176.89
  A 9.99 9.98 -90.0 0 0 152.93 186.88
  L 152.93 187.01
  A 0.72 0.72 0.0 0 0 153.65 187.73
  Z"
/>
<path fill="#2b3e8e" d="
  M 100.02 172.56
  Q 100.28 173.38 100.96 172.85
  Q 110.26 165.62 121.26 169.61
  C 127.18 171.76 128.52 177.42 128.54 183.16
  Q 128.59 198.41 128.52 215.31
  Q 128.52 216.66 127.17 216.65
  L 116.42 216.53
  A 0.83 0.82 85.3 0 1 115.62 215.85
  Q 115.28 214.07 115.28 212.29
  Q 115.24 198.55 115.31 186.77
  C 115.34 182.80 114.00 179.12 109.59 178.57
  Q 99.91 177.36 99.82 187.21
  Q 99.69 201.49 99.71 215.69
  Q 99.72 216.60 98.80 216.60
  L 87.11 216.58
  Q 86.26 216.58 86.26 215.73
  L 86.35 169.87
  A 0.57 0.57 0.0 0 1 86.92 169.30
  L 98.97 169.29
  Q 100.06 169.29 99.88 170.36
  Q 99.69 171.53 100.02 172.56
  Z"
/>
<path fill="#1a6eb6" d="
  M 271.43 185.12
  Q 271.29 183.47 271.30 181.71
  C 271.31 178.80 269.01 176.47 266.06 176.52
  C 261.13 176.59 259.89 176.55 257.44 181.08
  A 1.32 1.31 14.0 0 1 256.28 181.77
  L 245.30 181.71
  A 0.91 0.90 -85.4 0 1 244.41 180.66
  Q 245.82 171.95 254.78 169.51
  Q 265.01 166.72 274.52 169.50
  Q 280.20 171.16 283.39 176.60
  Q 284.23 178.03 284.24 182.75
  Q 284.25 196.00 284.25 208.16
  C 284.25 210.77 284.73 213.39 284.23 215.91
  Q 284.10 216.56 283.44 216.54
  L 273.94 216.24
  A 0.81 0.79 -3.9 0 1 273.17 215.58
  L 272.82 213.60
  A 1.30 1.30 0.0 0 0 270.66 212.87
  Q 266.27 216.97 260.04 217.37
  C 256.37 217.61 252.18 217.59 248.98 215.59
  C 240.42 210.24 239.94 197.59 248.95 192.17
  Q 252.97 189.75 258.28 188.52
  Q 264.58 187.07 270.61 186.16
  A 0.97 0.96 83.4 0 0 271.43 185.12
  Z
  M 270.51 201.77
  Q 272.06 198.12 271.32 193.86
  A 0.68 0.67 75.6 0 0 270.44 193.33
  Q 265.25 195.01 260.06 197.01
  C 256.21 198.49 253.56 202.30 256.14 206.19
  Q 257.56 208.33 260.67 208.38
  Q 267.67 208.49 270.51 201.77
  Z"
/>
<path fill="#1a6eb6" d="
  M 328.48 182.45
  C 324.81 178.14 318.39 175.88 313.61 179.36
  Q 310.50 181.62 309.25 186.61
  C 307.41 193.91 308.53 205.48 317.21 207.89
  C 322.14 209.26 326.97 206.45 329.34 202.13
  A 0.86 0.86 0.0 0 1 330.51 201.78
  L 337.89 205.72
  A 1.12 1.12 0.0 0 1 338.25 207.38
  C 332.45 215.07 323.59 218.87 313.90 217.30
  C 306.46 216.08 298.29 209.89 296.34 201.89
  C 293.47 190.11 295.85 177.33 306.94 171.10
  C 316.77 165.58 330.66 168.10 337.29 177.49
  Q 338.38 179.03 336.73 179.95
  L 331.30 182.97
  A 2.26 2.25 55.4 0 1 328.48 182.45
  Z"
/>
<path fill="#0e8dd2" d="
  M 375.06 185.36
  Q 376.01 180.70 373.54 177.62
  A 2.45 2.41 -13.1 0 0 372.15 176.77
  C 367.52 175.81 363.86 176.18 361.38 180.60
  Q 361.10 181.11 360.54 181.28
  C 357.46 182.22 352.86 181.74 349.64 181.51
  Q 348.51 181.44 348.64 180.32
  C 349.20 175.54 352.24 171.81 357.01 170.23
  Q 368.44 166.44 379.29 170.24
  C 384.10 171.93 387.76 176.07 387.79 181.29
  Q 387.87 195.77 387.76 208.25
  C 387.74 210.73 388.07 213.18 388.12 215.66
  A 0.61 0.60 90.0 0 1 387.51 216.28
  L 378.20 216.22
  A 1.13 1.11 79.9 0 1 377.15 215.48
  L 376.35 213.25
  A 1.14 1.14 0.0 0 0 374.52 212.78
  Q 367.59 218.87 356.99 217.08
  Q 352.38 216.30 349.92 213.17
  Q 343.21 204.66 348.61 196.26
  C 350.07 193.99 352.49 191.78 355.11 190.79
  Q 364.60 187.19 374.15 186.19
  A 1.06 1.04 -86.9 0 0 375.06 185.36
  Z
  M 374.40 201.41
  Q 375.66 198.05 375.17 194.60
  A 1.10 1.09 -10.5 0 0 373.83 193.69
  Q 367.73 195.17 362.61 197.74
  C 356.35 200.89 358.02 208.65 365.13 208.37
  Q 371.89 208.11 374.40 201.41
  Z"
/>
<path fill="#07a4e4" d="
  M 447.88 195.88
  A 0.87 0.87 0.0 0 0 447.03 196.92
  Q 447.54 199.50 448.12 201.98
  C 448.86 205.13 452.15 208.06 455.54 208.17
  C 459.29 208.30 462.83 208.92 466.01 206.26
  Q 468.83 203.88 470.52 201.07
  A 1.16 1.15 -58.9 0 1 472.11 200.67
  L 478.95 204.74
  A 1.55 1.55 0.0 0 1 479.20 207.22
  C 476.66 209.54 474.62 212.22 471.64 214.02
  Q 462.98 219.24 452.84 217.75
  C 444.68 216.55 436.87 210.56 434.69 202.39
  C 432.04 192.46 433.60 179.12 442.73 173.03
  Q 448.74 169.02 454.25 168.47
  Q 467.20 167.20 475.36 176.30
  Q 476.89 178.01 478.43 181.10
  C 480.46 185.14 480.82 189.61 480.92 193.91
  Q 480.96 195.41 479.46 195.43
  L 447.88 195.88
  Z
  M 448.73 187.87
  L 466.49 187.83
  A 1.01 1.01 0.0 0 0 467.50 186.82
  L 467.50 185.66
  A 9.38 9.01 -0.1 0 0 458.10 176.67
  L 457.08 176.67
  A 9.38 9.01 -0.1 0 0 447.72 185.70
  L 447.72 186.86
  A 1.01 1.01 0.0 0 0 448.73 187.87
  Z"
/>
<path fill="#205ea9" d="
  M 213.27 181.33
  Q 214.24 181.10 214.73 180.24
  Q 217.42 175.57 220.50 170.36
  Q 220.91 169.66 221.72 169.58
  Q 227.35 169.03 233.91 169.52
  A 0.42 0.41 19.7 0 1 234.22 170.17
  Q 226.87 180.68 221.21 190.27
  A 2.39 2.38 45.3 0 0 221.20 192.68
  Q 226.12 201.17 231.97 209.74
  Q 233.83 212.47 235.09 215.47
  Q 235.32 216.03 234.72 216.11
  Q 229.21 216.89 223.85 216.10
  C 222.83 215.94 221.95 215.13 221.42 214.29
  Q 217.87 208.61 214.31 202.79
  A 1.71 1.57 89.4 0 0 213.86 202.31
  Q 212.79 201.57 212.42 202.25
  Q 209.23 208.17 205.73 214.45
  Q 204.87 216.01 203.45 216.27
  Q 199.73 216.97 191.76 216.25
  Q 191.25 216.20 191.42 215.72
  Q 192.20 213.47 193.51 211.47
  Q 199.89 201.71 205.81 191.84
  A 2.08 2.07 -46.8 0 0 205.75 189.61
  L 192.35 169.88
  Q 192.09 169.50 192.55 169.47
  Q 199.52 169.08 206.28 169.53
  A 1.05 1.04 -11.6 0 1 207.14 170.09
  L 212.80 181.11
  A 0.43 0.43 0.0 0 0 213.27 181.33
  Z"
/>
<path fill="#0e8dd2" d="
  M 416.41 173.57
  C 418.57 172.23 427.45 166.08 428.24 172.06
  Q 428.78 176.20 428.21 179.18
  A 1.33 1.32 0.9 0 1 427.10 180.25
  C 423.94 180.73 419.43 181.24 417.04 183.43
  C 415.43 184.91 415.24 189.09 415.23 191.19
  Q 415.19 202.48 415.02 214.32
  A 2.09 2.08 0.7 0 1 412.91 216.37
  L 404.00 216.26
  A 1.76 1.76 0.0 0 1 402.27 214.50
  L 402.22 171.71
  Q 402.22 169.38 404.54 169.48
  L 412.77 169.82
  A 1.93 1.93 0.0 0 1 414.61 171.49
  Q 414.74 172.45 415.20 173.26
  Q 415.64 174.05 416.41 173.57
  Z"
/>
</svg>
